<svg xmlns="http://www.w3.org/2000/svg" xmlns:xlink="http://www.w3.org/1999/xlink" width="600" zoomAndPan="magnify" viewBox="0 0 450 112.499997" height="150" preserveAspectRatio="xMidYMid meet" version="1.0"><defs><g/></defs><g fill="#ffffff" fill-opacity="1"><g transform="translate(25.881126, 89.528887)"><g><path d="M 23.703125 -4.890625 C 26.628906 -4.890625 29.195312 -5.332031 31.40625 -6.21875 C 33.613281 -7.101562 35.320312 -8.398438 36.53125 -10.109375 C 37.75 -11.816406 38.359375 -13.859375 38.359375 -16.234375 C 38.359375 -18.285156 37.816406 -19.972656 36.734375 -21.296875 C 35.660156 -22.617188 34.070312 -23.722656 31.96875 -24.609375 C 29.875 -25.492188 27.0625 -26.347656 23.53125 -27.171875 C 19.382812 -28.171875 15.957031 -29.289062 13.25 -30.53125 C 10.550781 -31.769531 8.367188 -33.507812 6.703125 -35.75 C 5.046875 -37.988281 4.21875 -40.875 4.21875 -44.40625 C 4.21875 -47.726562 5.101562 -50.644531 6.875 -53.15625 C 8.644531 -55.664062 11.078125 -57.597656 14.171875 -58.953125 C 17.265625 -60.304688 20.742188 -60.984375 24.609375 -60.984375 C 28.203125 -60.984375 31.445312 -60.554688 34.34375 -59.703125 C 37.238281 -58.847656 39.546875 -57.835938 41.265625 -56.671875 C 42.203125 -56.015625 42.835938 -55.4375 43.171875 -54.9375 C 43.503906 -54.4375 43.671875 -53.882812 43.671875 -53.28125 C 43.671875 -52.445312 43.445312 -51.628906 43 -50.828125 C 42.5625 -50.023438 41.957031 -49.378906 41.1875 -48.890625 C 38.914062 -50.597656 36.328125 -52.003906 33.421875 -53.109375 C 30.523438 -54.210938 27.585938 -54.765625 24.609375 -54.765625 C 21.953125 -54.765625 19.601562 -54.320312 17.5625 -53.4375 C 15.519531 -52.5625 13.945312 -51.347656 12.84375 -49.796875 C 11.738281 -48.253906 11.1875 -46.515625 11.1875 -44.578125 C 11.1875 -42.535156 11.613281 -40.863281 12.46875 -39.5625 C 13.320312 -38.269531 14.742188 -37.179688 16.734375 -36.296875 C 18.722656 -35.410156 21.539062 -34.523438 25.1875 -33.640625 C 29.601562 -32.535156 33.257812 -31.316406 36.15625 -29.984375 C 39.0625 -28.660156 41.34375 -26.894531 43 -24.6875 C 44.65625 -22.476562 45.484375 -19.632812 45.484375 -16.15625 C 45.484375 -12.625 44.570312 -9.546875 42.75 -6.921875 C 40.925781 -4.296875 38.367188 -2.265625 35.078125 -0.828125 C 31.796875 0.609375 27.972656 1.328125 23.609375 1.328125 C 19.140625 1.328125 15.46875 0.859375 12.59375 -0.078125 C 9.71875 -1.015625 7.175781 -2.257812 4.96875 -3.8125 C 3.3125 -5.03125 2.484375 -6.242188 2.484375 -7.453125 C 2.484375 -8.890625 3.421875 -10.351562 5.296875 -11.84375 C 7.179688 -9.96875 9.671875 -8.335938 12.765625 -6.953125 C 15.859375 -5.578125 19.503906 -4.890625 23.703125 -4.890625 Z M 23.703125 -4.890625 "/></g></g></g><g fill="#ffffff" fill-opacity="1"><g transform="translate(74.436049, 89.528887)"><g><path d="M 52.359375 -60.15625 C 53.578125 -60.15625 54.476562 -60.070312 55.0625 -59.90625 C 55.644531 -59.738281 56.03125 -59.445312 56.21875 -59.03125 C 56.414062 -58.625 56.515625 -57.945312 56.515625 -57 L 56.515625 0.078125 C 55.847656 0.242188 54.90625 0.328125 53.6875 0.328125 C 52.476562 0.328125 51.582031 0.242188 51 0.078125 C 50.414062 -0.0859375 50.023438 -0.375 49.828125 -0.78125 C 49.640625 -1.195312 49.546875 -1.875 49.546875 -2.8125 L 49.546875 -27.84375 L 13.59375 -27.84375 L 13.59375 0.078125 C 12.925781 0.242188 11.984375 0.328125 10.765625 0.328125 C 9.554688 0.328125 8.660156 0.242188 8.078125 0.078125 C 7.492188 -0.0859375 7.101562 -0.375 6.90625 -0.78125 C 6.71875 -1.195312 6.625 -1.875 6.625 -2.8125 L 6.625 -59.90625 C 7.289062 -60.070312 8.234375 -60.15625 9.453125 -60.15625 C 10.660156 -60.15625 11.554688 -60.070312 12.140625 -59.90625 C 12.722656 -59.738281 13.109375 -59.445312 13.296875 -59.03125 C 13.492188 -58.625 13.59375 -57.945312 13.59375 -57 L 13.59375 -34.140625 L 49.546875 -34.140625 L 49.546875 -59.90625 C 50.210938 -60.070312 51.148438 -60.15625 52.359375 -60.15625 Z M 52.359375 -60.15625 "/></g></g></g><g fill="#ffffff" fill-opacity="1"><g transform="translate(136.496885, 89.528887)"><g><path d="M 57.921875 0 C 57.421875 0.113281 56.835938 0.179688 56.171875 0.203125 C 55.515625 0.234375 54.9375 0.25 54.4375 0.25 C 52.78125 0.25 51.5625 0.0390625 50.78125 -0.375 C 50.007812 -0.789062 49.347656 -1.632812 48.796875 -2.90625 L 42.84375 -17.0625 L 12.921875 -17.0625 C 10.609375 -11.269531 8.816406 -5.582031 7.546875 0 C 6.710938 0.164062 5.828125 0.25 4.890625 0.25 C 3.617188 0.25 2.691406 0.0546875 2.109375 -0.328125 C 1.535156 -0.710938 1.25 -1.320312 1.25 -2.15625 C 1.25 -2.925781 1.425781 -4.082031 1.78125 -5.625 C 2.132812 -7.175781 2.59375 -8.753906 3.15625 -10.359375 C 5.195312 -16.429688 8.300781 -23.625 12.46875 -31.9375 C 16.632812 -40.25 20.929688 -48.164062 25.359375 -55.6875 L 23.453125 -60.734375 C 24.222656 -60.898438 25.160156 -60.984375 26.265625 -60.984375 C 27.648438 -60.984375 28.738281 -60.816406 29.53125 -60.484375 C 30.332031 -60.148438 31.035156 -59.566406 31.640625 -58.734375 C 32.253906 -57.910156 32.945312 -56.617188 33.71875 -54.859375 Z M 40.265625 -23.03125 L 28.921875 -49.96875 C 23.671875 -40.90625 19.140625 -31.925781 15.328125 -23.03125 Z M 40.265625 -23.03125 "/></g></g></g><g fill="#ffffff" fill-opacity="1"><g transform="translate(193.751939, 89.528887)"><g><path d="M 51.953125 -60.15625 C 53.171875 -60.15625 54.066406 -60.070312 54.640625 -59.90625 C 55.222656 -59.738281 55.609375 -59.445312 55.796875 -59.03125 C 55.992188 -58.625 56.09375 -57.945312 56.09375 -57 L 56.09375 -5.890625 C 56.09375 -3.785156 55.550781 -2.207031 54.46875 -1.15625 C 53.394531 -0.101562 52.003906 0.421875 50.296875 0.421875 C 49.140625 0.421875 48.085938 0.304688 47.140625 0.078125 C 41.453125 -8.921875 35.597656 -17.828125 29.578125 -26.640625 C 23.554688 -35.453125 18.226562 -42.8125 13.59375 -48.71875 L 13.59375 0.078125 C 12.925781 0.242188 11.984375 0.328125 10.765625 0.328125 C 9.554688 0.328125 8.660156 0.242188 8.078125 0.078125 C 7.492188 -0.0859375 7.101562 -0.375 6.90625 -0.78125 C 6.71875 -1.195312 6.625 -1.875 6.625 -2.8125 L 6.625 -55.84375 L 3.8125 -60.15625 C 4.363281 -60.320312 5.039062 -60.472656 5.84375 -60.609375 C 6.644531 -60.742188 7.457031 -60.8125 8.28125 -60.8125 C 9.5 -60.8125 10.425781 -60.742188 11.0625 -60.609375 C 11.695312 -60.472656 12.289062 -60.171875 12.84375 -59.703125 C 13.394531 -59.234375 14.113281 -58.472656 15 -57.421875 C 19.53125 -52.003906 24.914062 -44.832031 31.15625 -35.90625 C 37.394531 -26.988281 43.390625 -18.054688 49.140625 -9.109375 L 49.140625 -59.90625 C 49.796875 -60.070312 50.734375 -60.15625 51.953125 -60.15625 Z M 51.953125 -60.15625 "/></g></g></g><g fill="#ffffff" fill-opacity="1"><g transform="translate(255.398486, 89.528887)"><g><path d="M 55.015625 -0.65625 C 54.460938 -0.269531 53.757812 0.015625 52.90625 0.203125 C 52.050781 0.398438 51.207031 0.5 50.375 0.5 C 49.269531 0.5 48.359375 0.28125 47.640625 -0.15625 C 46.921875 -0.601562 46.175781 -1.4375 45.40625 -2.65625 L 27.421875 -30.40625 C 22.953125 -27.3125 18.476562 -24.71875 14 -22.625 L 14 0.078125 C 13.34375 0.242188 12.40625 0.328125 11.1875 0.328125 C 9.96875 0.328125 9.066406 0.242188 8.484375 0.078125 C 7.910156 -0.0859375 7.523438 -0.375 7.328125 -0.78125 C 7.140625 -1.195312 7.046875 -1.875 7.046875 -2.8125 L 7.046875 -59.90625 C 7.703125 -60.070312 8.640625 -60.15625 9.859375 -60.15625 C 11.078125 -60.15625 11.972656 -60.070312 12.546875 -59.90625 C 13.128906 -59.738281 13.515625 -59.445312 13.703125 -59.03125 C 13.898438 -58.625 14 -57.945312 14 -57 L 14 -29.328125 C 20.851562 -33.085938 27.097656 -37.519531 32.734375 -42.625 C 38.367188 -47.738281 43.445312 -53.773438 47.96875 -60.734375 C 49.46875 -60.066406 50.585938 -59.429688 51.328125 -58.828125 C 52.078125 -58.222656 52.453125 -57.535156 52.453125 -56.765625 C 52.453125 -55.765625 51.84375 -54.410156 50.625 -52.703125 C 46.09375 -46.296875 40.210938 -40.21875 32.984375 -34.46875 Z M 55.015625 -0.65625 "/></g></g></g><g fill="#ffffff" fill-opacity="1"><g transform="translate(311.824952, 89.528887)"><g><path d="M 57.921875 0 C 57.421875 0.113281 56.835938 0.179688 56.171875 0.203125 C 55.515625 0.234375 54.9375 0.25 54.4375 0.25 C 52.78125 0.25 51.5625 0.0390625 50.78125 -0.375 C 50.007812 -0.789062 49.347656 -1.632812 48.796875 -2.90625 L 42.84375 -17.0625 L 12.921875 -17.0625 C 10.609375 -11.269531 8.816406 -5.582031 7.546875 0 C 6.710938 0.164062 5.828125 0.25 4.890625 0.25 C 3.617188 0.25 2.691406 0.0546875 2.109375 -0.328125 C 1.535156 -0.710938 1.25 -1.320312 1.25 -2.15625 C 1.25 -2.925781 1.425781 -4.082031 1.78125 -5.625 C 2.132812 -7.175781 2.59375 -8.753906 3.15625 -10.359375 C 5.195312 -16.429688 8.300781 -23.625 12.46875 -31.9375 C 16.632812 -40.25 20.929688 -48.164062 25.359375 -55.6875 L 23.453125 -60.734375 C 24.222656 -60.898438 25.160156 -60.984375 26.265625 -60.984375 C 27.648438 -60.984375 28.738281 -60.816406 29.53125 -60.484375 C 30.332031 -60.148438 31.035156 -59.566406 31.640625 -58.734375 C 32.253906 -57.910156 32.945312 -56.617188 33.71875 -54.859375 Z M 40.265625 -23.03125 L 28.921875 -49.96875 C 23.671875 -40.90625 19.140625 -31.925781 15.328125 -23.03125 Z M 40.265625 -23.03125 "/></g></g></g><g fill="#ffffff" fill-opacity="1"><g transform="translate(366.594239, 89.528887)"><g><path d="M 54.1875 -0.65625 C 52.644531 0.113281 50.988281 0.5 49.21875 0.5 C 48.164062 0.5 47.304688 0.238281 46.640625 -0.28125 C 45.984375 -0.8125 45.269531 -1.769531 44.5 -3.15625 L 32.5625 -23.78125 C 30.789062 -23.613281 28.96875 -23.53125 27.09375 -23.53125 L 15.984375 -23.53125 L 15.984375 0.078125 C 15.328125 0.242188 14.390625 0.328125 13.171875 0.328125 C 11.960938 0.328125 11.066406 0.242188 10.484375 0.078125 C 9.898438 -0.0859375 9.507812 -0.375 9.3125 -0.78125 C 9.125 -1.195312 9.03125 -1.875 9.03125 -2.8125 L 9.03125 -53.359375 L 1.15625 -53.359375 C 1.050781 -53.742188 0.96875 -54.210938 0.90625 -54.765625 C 0.851562 -55.316406 0.828125 -55.898438 0.828125 -56.515625 C 0.828125 -57.722656 1.085938 -58.546875 1.609375 -58.984375 C 2.140625 -59.429688 3.09375 -59.65625 4.46875 -59.65625 L 27.09375 -59.65625 C 35.101562 -59.65625 41.082031 -58.160156 45.03125 -55.171875 C 48.976562 -52.191406 50.953125 -47.640625 50.953125 -41.515625 C 50.953125 -37.253906 49.984375 -33.785156 48.046875 -31.109375 C 46.117188 -28.429688 43.25 -26.429688 39.4375 -25.109375 Z M 26.921875 -30 C 30.679688 -30 33.75 -30.316406 36.125 -30.953125 C 38.5 -31.585938 40.332031 -32.734375 41.625 -34.390625 C 42.925781 -36.046875 43.578125 -38.390625 43.578125 -41.421875 C 43.578125 -45.679688 42.207031 -48.734375 39.46875 -50.578125 C 36.738281 -52.429688 32.554688 -53.359375 26.921875 -53.359375 L 15.984375 -53.359375 L 15.984375 -30 Z M 26.921875 -30 "/></g></g></g></svg>